<svg width="70" height="71" viewBox="0 0 70 71" fill="none" xmlns="http://www.w3.org/2000/svg">
<g id="akar-icons:discord-fill" clip-path="url(#clip0_1_886)">
<path id="Vector" d="M59.2579 13.1357C54.7954 11.1232 50.0121 9.63569 45.01 8.78985C44.9654 8.7813 44.9193 8.78681 44.8781 8.80563C44.8368 8.82444 44.8024 8.85562 44.7796 8.89485C44.1671 9.9711 43.4846 11.374 43.0062 12.4824C37.7011 11.6897 32.3076 11.6897 27.0025 12.4824C26.4697 11.254 25.8689 10.0563 25.2029 8.89485C25.1803 8.85514 25.1462 8.82325 25.105 8.80345C25.0638 8.78364 25.0176 8.77687 24.9725 8.78402C19.9733 9.62985 15.19 11.1174 10.7246 13.1328C10.6862 13.1489 10.6536 13.1764 10.6312 13.2115C1.55458 26.5553 -0.933335 39.5694 0.288748 52.4203C0.292149 52.4517 0.301918 52.4822 0.317462 52.5098C0.333006 52.5374 0.354 52.5615 0.379165 52.5807C5.67698 56.4378 11.586 59.376 17.8587 61.2724C17.9025 61.2858 17.9492 61.2858 17.993 61.2723C18.0367 61.2587 18.0753 61.2323 18.1037 61.1965C19.4536 59.3913 20.6497 57.4761 21.6796 55.4711C21.6939 55.4437 21.7021 55.4135 21.7037 55.3827C21.7054 55.3518 21.7003 55.3209 21.689 55.2922C21.6777 55.2634 21.6603 55.2374 21.638 55.2159C21.6158 55.1945 21.5892 55.1781 21.56 55.1678C19.6758 54.4582 17.8502 53.602 16.1 52.6069C16.0685 52.589 16.042 52.5635 16.0229 52.5328C16.0037 52.5021 15.9924 52.4671 15.9901 52.4309C15.9878 52.3948 15.9945 52.3586 16.0096 52.3257C16.0247 52.2928 16.0478 52.2642 16.0767 52.2424C16.4442 51.9711 16.8117 51.6882 17.1617 51.4053C17.1932 51.3798 17.2311 51.3636 17.2713 51.3585C17.3115 51.3533 17.3523 51.3594 17.3892 51.3761C28.8429 56.5211 41.2475 56.5211 52.5671 51.3761C52.6041 51.3584 52.6453 51.3515 52.6861 51.3562C52.7268 51.3608 52.7654 51.3768 52.7975 51.4024C53.1475 51.6882 53.5121 51.9711 53.8825 52.2424C53.9117 52.2637 53.9351 52.292 53.9507 52.3246C53.9663 52.3572 53.9735 52.3932 53.9718 52.4294C53.9701 52.4655 53.9594 52.5006 53.9408 52.5316C53.9221 52.5626 53.8961 52.5885 53.865 52.6069C52.1208 53.6103 50.3067 54.459 48.4021 55.1649C48.3728 55.1755 48.3462 55.1922 48.3239 55.2139C48.3017 55.2357 48.2843 55.2619 48.273 55.2909C48.2616 55.3199 48.2566 55.351 48.2583 55.382C48.2599 55.4131 48.2682 55.4435 48.2825 55.4711C49.3325 57.4749 50.5342 59.3824 51.8554 61.1936C51.8829 61.2308 51.9212 61.2586 51.965 61.2732C52.0089 61.2878 52.0561 61.2885 52.1004 61.2753C58.3839 59.3842 64.3026 56.4446 69.6062 52.5807C69.6321 52.5626 69.6538 52.5392 69.6699 52.512C69.686 52.4849 69.6961 52.4546 69.6996 52.4232C71.1579 37.5657 67.2554 24.6565 59.3483 13.2174C59.3289 13.1802 59.2969 13.1512 59.2579 13.1357ZM23.3917 44.5949C19.9442 44.5949 17.1004 41.4769 17.1004 37.6532C17.1004 33.8265 19.8888 30.7115 23.3917 30.7115C26.9208 30.7115 29.7383 33.8528 29.6829 37.6532C29.6829 41.4799 26.8946 44.5949 23.3917 44.5949ZM46.6521 44.5949C43.2017 44.5949 40.3608 41.4769 40.3608 37.6532C40.3608 33.8265 43.1462 30.7115 46.6521 30.7115C50.1812 30.7115 52.9988 33.8528 52.9433 37.6532C52.9433 41.4799 50.1842 44.5949 46.6521 44.5949Z" fill="#D5FF2F"/>
</g>
<defs>
<clipPath id="clip0_1_886">
<rect width="70" height="70" fill="white" transform="translate(0 0.0341797)"/>
</clipPath>
</defs>
</svg>
