<svg width="70" height="71" viewBox="0 0 70 71" fill="none" xmlns="http://www.w3.org/2000/svg">
<g id="akar-icons:github-fill" clip-path="url(#clip0_1_876)">
<path id="Vector" fill-rule="evenodd" clip-rule="evenodd" d="M35 0.0341797C15.6625 0.0341797 0 15.6967 0 35.0342C0 50.5217 10.0188 63.6029 23.9312 68.2404C25.6812 68.5467 26.3375 67.4967 26.3375 66.5779C26.3375 65.7467 26.2938 62.9904 26.2938 60.0592C17.5 61.6779 15.225 57.9154 14.525 55.9467C14.1313 54.9404 12.425 51.8342 10.9375 51.0029C9.7125 50.3467 7.9625 48.7279 10.8938 48.6842C13.65 48.6404 15.6188 51.2217 16.275 52.2717C19.425 57.5654 24.4562 56.0779 26.4688 55.1592C26.775 52.8842 27.6938 51.3529 28.7 50.4779C20.9125 49.6029 12.775 46.5842 12.775 33.1967C12.775 29.3904 14.1313 26.2404 16.3625 23.7904C16.0125 22.9154 14.7875 19.3279 16.7125 14.5154C16.7125 14.5154 19.6437 13.5967 26.3375 18.1029C29.1375 17.3154 32.1125 16.9217 35.0875 16.9217C38.0625 16.9217 41.0375 17.3154 43.8375 18.1029C50.5312 13.5529 53.4625 14.5154 53.4625 14.5154C55.3875 19.3279 54.1625 22.9154 53.8125 23.7904C56.0438 26.2404 57.4 29.3467 57.4 33.1967C57.4 46.6279 49.2188 49.6029 41.4313 50.4779C42.7 51.5717 43.7938 53.6717 43.7938 56.9529C43.7938 61.6342 43.75 65.3967 43.75 66.5779C43.75 67.4967 44.4062 68.5904 46.1562 68.2404C53.1043 65.8946 59.1418 61.4291 63.419 55.4723C67.6963 49.5156 69.9979 42.3675 70 35.0342C70 15.6967 54.3375 0.0341797 35 0.0341797Z" fill="#54F2F2"/>
</g>
<defs>
<clipPath id="clip0_1_876">
<rect width="70" height="70" fill="white" transform="translate(0 0.0341797)"/>
</clipPath>
</defs>
</svg>
