<svg width="31" height="31" viewBox="0 0 31 31" fill="none" xmlns="http://www.w3.org/2000/svg">
<g id="akar-icons:youtube-fill" clip-path="url(#clip0_1_880)">
<g id="Group">
<g id="Group_2">
<path id="Vector" d="M30.2141 8.16778C30.0394 7.56182 29.699 7.01321 29.2292 6.58028C28.7462 6.13404 28.1541 5.81483 27.509 5.65278C25.0944 5.03403 15.4207 5.03403 15.4207 5.03403C11.3878 4.98942 7.35594 5.18562 3.34782 5.62153C2.70263 5.79555 2.11168 6.12189 1.62753 6.57153C1.15182 7.01653 0.807246 7.56528 0.627246 8.16653C0.194851 10.4312 -0.0152362 12.7307 -0.000183041 15.034C-0.0156116 17.3353 0.19396 19.634 0.627246 21.9015C0.803388 22.5003 1.14667 23.0465 1.62367 23.4878C2.10067 23.929 2.69467 24.2478 3.34782 24.4165C5.79453 25.034 15.4207 25.034 15.4207 25.034C19.4587 25.0787 23.4957 24.8825 27.509 24.4465C28.1541 24.2845 28.7462 23.9653 29.2292 23.519C29.6989 23.0862 30.0388 22.5375 30.2128 21.9315C30.6565 19.6677 30.8722 17.3673 30.857 15.0628C30.8903 12.7485 30.6749 10.4372 30.2141 8.16653V8.16778ZM12.3452 19.314V10.7553L20.3938 15.0353L12.3452 19.314Z" fill="#D5FF2F"/>
</g>
</g>
</g>
<defs>
<clipPath id="clip0_1_880">
<rect width="30.8571" height="30" fill="white" transform="translate(0 0.0341797)"/>
</clipPath>
</defs>
</svg>
