<svg width="35" height="36" viewBox="0 0 35 36" fill="none" xmlns="http://www.w3.org/2000/svg">
<g id="akar-icons:reddit-fill" clip-path="url(#clip0_1_868)">
<path id="Vector" fill-rule="evenodd" clip-rule="evenodd" d="M35 17.5342C35 27.1986 27.1644 35.0342 17.5 35.0342C7.83563 35.0342 0 27.1986 0 17.5342C0 7.86981 7.83563 0.0341797 17.5 0.0341797C27.1644 0.0341797 35 7.86981 35 17.5342ZM28.7117 16.1604C28.9946 16.5644 29.155 17.0413 29.1725 17.5342C29.1801 18.0164 29.0511 18.4909 28.8002 18.9028C28.5493 19.3147 28.187 19.6472 27.755 19.8617C27.7754 20.1183 27.7754 20.375 27.755 20.6317C27.755 24.5517 23.1875 27.7367 17.5525 27.7367C11.9175 27.7367 7.35 24.5517 7.35 20.6317C7.3303 20.3754 7.3303 20.118 7.35 19.8617C7.01629 19.7055 6.72037 19.4788 6.48257 19.1974C6.24477 18.9159 6.07073 18.5863 5.97242 18.2312C5.87411 17.8761 5.85386 17.504 5.91306 17.1403C5.97226 16.7766 6.10951 16.4301 6.31536 16.1245C6.52122 15.8189 6.79081 15.5615 7.1056 15.37C7.42039 15.1785 7.77291 15.0574 8.13893 15.0151C8.50496 14.9728 8.8758 15.0102 9.22598 15.1249C9.57615 15.2395 9.89735 15.4286 10.1675 15.6792C12.184 14.3116 14.5563 13.5634 16.9925 13.5267L18.2875 7.45418C18.302 7.38388 18.3304 7.31717 18.3709 7.2579C18.4114 7.19864 18.4633 7.14801 18.5235 7.10894C18.5838 7.06988 18.6511 7.04315 18.7218 7.03032C18.7924 7.01748 18.8649 7.0188 18.935 7.03418L23.2225 7.89168C23.4319 7.53195 23.7626 7.25862 24.1554 7.12077C24.5481 6.98291 24.9771 6.98956 25.3654 7.13951C25.7537 7.28946 26.0758 7.57289 26.274 7.93894C26.4721 8.30499 26.5333 8.72967 26.4465 9.13676C26.3598 9.54385 26.1308 9.90669 25.8006 10.1601C25.4704 10.4136 25.0607 10.5411 24.645 10.5197C24.2294 10.4983 23.8349 10.3295 23.5325 10.0435C23.2301 9.75745 23.0395 9.37302 22.995 8.95918L19.25 8.17168L18.1125 13.6317C20.5191 13.6833 22.8592 14.4309 24.85 15.7842C25.1158 15.5287 25.4337 15.3337 25.7819 15.2128C26.1302 15.0918 26.5005 15.0477 26.8674 15.0834C27.2344 15.1192 27.5892 15.2339 27.9076 15.4199C28.2259 15.6058 28.5002 15.8584 28.7117 16.1604ZM11.9671 18.3115C11.8393 18.5026 11.7505 18.717 11.7056 18.9425C11.6608 19.1679 11.6607 19.4 11.7056 19.6255C11.7961 20.0809 12.0638 20.4816 12.4498 20.7396C12.8358 20.9976 13.3085 21.0917 13.7638 21.0011C13.9893 20.9563 14.2037 20.8675 14.3949 20.7398C14.586 20.6121 14.7502 20.448 14.8779 20.2569C15.1359 19.8709 15.23 19.3982 15.1394 18.9429C15.0489 18.4875 14.7812 18.0867 14.3952 17.8288C14.0092 17.5708 13.5365 17.4767 13.0812 17.5672C12.6258 17.6578 12.2251 17.9255 11.9671 18.3115ZM17.5175 25.4442C19.0706 25.5083 20.599 25.1029 21.84 24.1667C21.9328 24.0762 21.9859 23.9525 21.9875 23.8229C21.9892 23.6932 21.9393 23.5683 21.8488 23.4754C21.8039 23.4295 21.7505 23.3928 21.6915 23.3675C21.6325 23.3422 21.5691 23.3287 21.5049 23.3279C21.3753 23.3263 21.2503 23.3762 21.1575 23.4667C20.0954 24.2286 18.8051 24.6052 17.5 24.5342C16.1965 24.5924 14.9122 24.2034 13.86 23.4317C13.7693 23.3573 13.6542 23.3192 13.5371 23.325C13.4199 23.3307 13.3091 23.3799 13.2261 23.4628C13.1432 23.5458 13.0941 23.6566 13.0883 23.7737C13.0826 23.8909 13.1206 24.006 13.195 24.0967C14.4366 25.0323 15.9642 25.5085 17.5175 25.4442ZM20.5523 20.8096C20.841 21.0021 21.1619 21.1742 21.5075 21.1742C21.7449 21.177 21.9803 21.1314 22.1994 21.0402C22.4186 20.9491 22.6169 20.8142 22.7823 20.6439C22.9477 20.4737 23.0766 20.2715 23.1613 20.0497C23.246 19.828 23.2847 19.5913 23.275 19.3542C23.2749 19.0519 23.1965 18.7548 23.0474 18.4918C22.8983 18.2289 22.6837 18.009 22.4244 17.8536C22.1651 17.6983 21.8699 17.6127 21.5677 17.6054C21.2656 17.598 20.9666 17.669 20.7 17.8115C20.4334 17.954 20.2083 18.1631 20.0466 18.4185C19.8848 18.6739 19.792 18.9668 19.7771 19.2687C19.7622 19.5706 19.8258 19.8713 19.9617 20.1413C20.0975 20.4113 20.301 20.6416 20.5523 20.8096Z" fill="#FF2473"/>
</g>
<defs>
<clipPath id="clip0_1_868">
<rect width="35" height="35" fill="white" transform="translate(0 0.0341797)"/>
</clipPath>
</defs>
</svg>
