<svg width="30" height="31" viewBox="0 0 30 31" fill="none" xmlns="http://www.w3.org/2000/svg">
<g id="bi:quora" clip-path="url(#clip0_1_890)">
<path id="Vector" d="M16.3688 23.4267C15.33 21.3811 14.1113 19.3148 11.7319 19.3148C11.2781 19.3148 10.8244 19.3898 10.4063 19.5811L9.6 17.9629C10.5844 17.1192 12.1744 16.4479 14.22 16.4479C17.4019 16.4479 19.035 17.9817 20.3325 19.9354C21.1013 18.2667 21.4669 16.0111 21.4669 13.2154C21.4669 6.23293 19.2825 2.64793 14.1825 2.64793C9.1575 2.64793 6.98438 6.23293 6.98438 13.2154C6.98438 20.1604 9.1575 23.7079 14.1844 23.7079C14.9813 23.7079 15.705 23.6217 16.3706 23.4267H16.3688ZM17.6156 25.8642C16.4965 26.1648 15.3431 26.3186 14.1844 26.3217C7.48875 26.3217 0.9375 20.9817 0.9375 13.2154C0.9375 5.37605 7.49063 0.0341797 14.1825 0.0341797C20.9888 0.0341797 27.4763 5.33668 27.4763 13.2154C27.4763 17.5973 25.4325 21.1579 22.4606 23.4604C23.4206 24.8986 24.4106 25.8548 25.785 25.8548C27.2888 25.8548 27.8944 24.6923 27.9956 23.7829H29.9513C30.0656 24.9961 29.46 30.0342 23.9925 30.0342C20.6794 30.0342 18.93 28.1142 17.6175 25.8642H17.6156Z" fill="#54F2F2"/>
</g>
<defs>
<clipPath id="clip0_1_890">
<rect width="30" height="30" fill="white" transform="translate(0 0.0341797)"/>
</clipPath>
</defs>
</svg>
