<svg width="160" height="134" viewBox="0 0 160 134" fill="none" xmlns="http://www.w3.org/2000/svg">
<g id="Group 509">
<path id="Vector" d="M149.642 53.4689C148.984 50.5138 147.023 48.0158 144.309 46.6751L110.929 30.1874C108.137 28.8086 104.863 28.8086 102.071 30.1874L68.6911 46.6751C65.9768 48.0158 64.016 50.5138 63.3584 53.4689L55.0224 90.93C54.3749 93.8397 55.0592 96.8867 56.8889 99.24L80.1339 129.138C82.0284 131.575 84.942 133 88.0285 133H124.971C128.058 133 130.972 131.575 132.866 129.138L156.111 99.24C157.941 96.8867 158.625 93.8397 157.978 90.93L149.642 53.4689ZM122.024 106.055C120.129 108.486 117.219 109.908 114.136 109.908H98.8695C95.7838 109.908 92.8709 108.483 90.9763 106.048L81.2548 93.5498C79.4243 91.1966 78.7392 88.1493 79.3864 85.2391L82.8944 69.4649C83.552 66.5082 85.5141 64.0089 88.2302 62.6684L102.089 55.8283C104.879 54.4513 108.151 54.4513 110.941 55.8283L124.8 62.6684C127.516 64.0089 129.478 66.5082 130.136 69.4648L133.642 85.2335C134.29 88.1469 133.603 91.1975 131.768 93.5516L122.024 106.055Z" fill="#361281" stroke="#D5FF2F" stroke-width="2" stroke-miterlimit="10"/>
<path id="Vector_2" d="M74.1174 20.5176C73.4598 17.5626 71.499 15.0645 68.7847 13.7238L45.4286 2.18742C42.6372 0.808647 39.3628 0.80865 36.5714 2.18742L13.2153 13.7238C10.501 15.0645 8.54018 17.5626 7.88261 20.5176L2.02235 46.8528C1.37485 49.7625 2.05924 52.8095 3.88892 55.1628L20.1966 76.1379C22.0911 78.5747 25.0047 80 28.0913 80H53.9087C56.9953 80 59.9089 78.5747 61.8034 76.1379L78.1111 55.1628C79.9408 52.8095 80.6252 49.7625 79.9777 46.8528L74.1174 20.5176ZM53.5425 58.5531C51.6477 60.9843 48.7375 62.4059 45.655 62.4059H36.3507C33.265 62.4059 30.3521 60.9813 28.4575 58.5457L22.4537 50.8274C20.6232 48.4741 19.9381 45.4269 20.5853 42.5167L22.7672 32.7057C23.4247 29.749 25.3869 27.2497 28.1029 25.9092L36.5856 21.7226C39.3755 20.3456 42.6474 20.3456 45.4372 21.7226L53.92 25.9092C56.636 27.2497 58.5982 29.749 59.2557 32.7057L61.4363 42.5111C62.0843 45.4245 61.397 48.4751 59.5623 50.8292L53.5425 58.5531Z" fill="#361281" stroke="#FF2473" stroke-width="2" stroke-miterlimit="10"/>
</g>
</svg>
