<svg width="252" height="252" viewBox="0 0 252 252" fill="none" xmlns="http://www.w3.org/2000/svg">
<path d="M184.411 10.9181C182.753 9.25928 180.563 8.23787 178.227 8.03335L98.3106 1.03801C95.9746 0.83352 93.6411 1.45874 91.7203 2.80381L26.0157 48.8144C24.0957 50.1589 22.7107 52.1367 22.1039 54.4007L1.33991 131.872C0.732983 134.137 0.943438 136.543 1.93431 138.667L35.8287 211.348C36.8196 213.472 38.5275 215.18 40.6525 216.171L113.352 250.066C115.477 251.057 117.883 251.267 120.147 250.66L197.632 229.901C199.898 229.294 201.877 227.908 203.222 225.986L249.198 160.297C250.542 158.377 251.166 156.045 250.962 153.71L243.967 73.8012C243.762 71.467 242.742 69.2794 241.086 67.6221L184.411 10.9181ZM191.935 137.888C192.139 140.226 191.513 142.561 190.165 144.482L168.137 175.883C166.792 177.799 164.816 179.182 162.554 179.788L125.469 189.724C123.207 190.33 120.804 190.121 118.681 189.133L83.9024 172.952C81.7742 171.962 80.0635 170.253 79.0715 168.126L62.8486 133.341C61.8574 131.215 61.6471 128.809 62.2544 126.544L72.1968 89.4685C72.8037 87.2052 74.1883 85.228 76.1078 83.8838L107.547 61.8651C109.468 60.5198 111.802 59.8944 114.138 60.099L152.383 63.4478C154.719 63.6523 156.907 64.6728 158.565 66.3303L185.707 93.4693C187.365 95.127 188.385 97.3158 188.59 99.6511L191.935 137.888Z" stroke="#FF6F1F" stroke-width="2" stroke-miterlimit="10"/>
<path d="M110.286 106.034C107.92 106.034 106 107.954 106 110.32V141.748C106 144.115 107.92 146.034 110.286 146.034H141.714C144.08 146.034 146 144.115 146 141.748V110.32C146 107.954 144.08 106.034 141.714 106.034H110.286ZM130.47 111.748L138.059 121.976L136.013 123.494L128.425 113.266L130.47 111.748ZM125.753 115.84L135.552 123.989L133.935 125.935L124.136 117.786L125.753 115.84ZM121.992 121.118L133.539 126.529L132.483 128.838L120.936 123.461L121.992 121.118ZM119.814 126.892L132.285 129.498L131.757 132.006L119.287 129.399L119.814 126.892V126.892ZM113.941 130.125H116.482V137.78H134.331V130.125H136.871V140.32H113.941V130.125V130.125ZM119.022 132.666H131.757V135.206H119.022V132.666H119.022Z" fill="#FF6F1F"/>
</svg>
