<svg width="250" height="250" viewBox="0 0 250 250" fill="none" xmlns="http://www.w3.org/2000/svg">
<g id="Mask group">
<mask id="mask0_1_928" style="mask-type:alpha" maskUnits="userSpaceOnUse" x="0" y="0" width="250" height="250">
<rect id="Rectangle 83" width="250" height="250" fill="#C4C4C4"/>
</mask>
<g mask="url(#mask0_1_928)">
<path id="Vector 8" d="M51.6164 213.574C42.4708 224.023 40.0615 242.212 40 250H194.516C189.907 234.363 160.405 198.856 157.823 194.257C155.242 189.657 161.327 179.539 164.092 175.492C166.858 171.444 166.121 172.18 167.78 162.062C169.44 151.943 173.312 154.703 186.588 155.255C199.864 155.807 201.339 146.976 200.97 137.778C200.601 128.579 203.182 132.626 205.026 127.659C206.501 123.685 205.641 119.258 205.026 117.541C206.87 114.229 206.87 110.734 203.182 106.686C201.339 100.799 201.707 101.167 206.87 97.4879C217.38 88.8413 198.204 80.3786 196.36 78.7228C194.516 77.0671 191.382 74.4915 196.36 70.4441C201.339 66.3967 198.573 62.5334 196.36 58.302C194.148 54.0707 186.772 42.4806 178.843 29.9705C178.29 17.4604 165.014 11.5734 153.582 4.76649C142.15 -2.04045 131.456 -1.12059 102.138 4.76649C72.8209 10.6536 71.3458 24.4514 60.8357 42.4806C50.3257 60.5097 55.1197 67.1327 57.8855 74.4915C61.3889 107.422 78.5369 123.428 84.0685 132.626C89.6001 141.825 88.8625 142.377 88.8625 143.665V151.208C79.6432 152.495 80.5651 158.382 78.5369 165.189C74.8491 171.996 76.693 172.548 78.5369 177.147C76.693 189.473 63.0484 200.512 51.6164 213.574Z" fill="#4A2A8A"/>
</g>
</g>
</svg>
