<svg width="173" height="173" viewBox="0 0 173 173" fill="none" xmlns="http://www.w3.org/2000/svg">
<path id="Vector" d="M113.797 3.92337C111.275 1.40181 107.601 0.417314 104.157 1.34053L28.643 21.583C25.1987 22.5063 22.5083 25.1973 21.5846 28.6428L1.34098 104.156C0.416674 107.603 1.4021 111.283 3.92577 113.806L59.1975 169.076C61.7195 171.598 65.3944 172.583 68.8386 171.659L144.352 151.417C147.796 150.494 150.487 147.803 151.41 144.358L171.659 68.8436C172.583 65.3954 171.598 61.7157 169.074 59.192L113.797 3.92337ZM122.716 115.669C121.793 119.114 119.102 121.805 115.658 122.728L79.3276 132.467C75.8836 133.39 72.2088 132.406 69.6869 129.884L43.1041 103.304C40.5801 100.781 39.5946 97.1011 40.5191 93.653L50.2564 57.3373C51.1801 53.892 53.8705 51.2012 57.3146 50.278L93.6451 40.5391C97.0892 39.6159 100.764 40.6004 103.286 43.122L129.869 69.7016C132.393 72.2253 133.378 75.9049 132.454 79.353L122.716 115.669Z" stroke="#54F2F2" stroke-width="2" stroke-miterlimit="10"/>
</svg>
