<svg width="208" height="206" viewBox="0 0 208 206" fill="none" xmlns="http://www.w3.org/2000/svg">
<path id="Vector" d="M114.191 2.03438C111.816 0.863057 109.07 0.678586 106.557 1.52153L39.3318 24.077C36.8187 24.9203 34.745 26.7225 33.567 29.0873L2.04048 92.3781C0.862523 94.7429 0.67676 97.4765 1.52405 99.9776L24.179 166.852C25.0263 169.353 26.8373 171.417 29.2135 172.589L92.8097 203.965C95.186 205.137 97.9328 205.322 100.446 204.478L167.67 181.923C170.183 181.08 172.257 179.278 173.435 176.913L204.961 113.622C206.139 111.258 206.325 108.524 205.478 106.023L182.814 39.1231C181.967 36.6212 180.155 34.557 177.778 33.3849L114.191 2.03438ZM155.432 102.662C156.278 105.163 156.092 107.895 154.914 110.259L140.449 139.299C139.271 141.664 137.197 143.466 134.684 144.31L103.835 154.66C101.322 155.503 98.575 155.318 96.1988 154.146L67.02 139.751C64.6438 138.578 62.8328 136.515 61.9855 134.014L51.5829 103.306C50.7356 100.805 50.9214 98.0716 52.0993 95.7068L66.5642 66.6681C67.7421 64.3033 69.8158 62.501 72.329 61.6578L103.191 51.3029C105.704 50.4597 108.451 50.6446 110.827 51.8169L140.004 66.2114C142.382 67.3842 144.193 69.4492 145.04 71.9517L155.432 102.662Z" stroke="#D5FF2F" stroke-width="2" stroke-miterlimit="10"/>
</svg>
