<svg width="196" height="190" viewBox="0 0 196 190" fill="none" xmlns="http://www.w3.org/2000/svg">
<path id="Vector" d="M176.86 42.1274C176.183 39.1601 174.19 36.663 171.447 35.3432L102.336 2.08656C99.5958 0.767884 96.4042 0.767884 93.6639 2.08656L24.5525 35.3432C21.8098 36.663 19.8175 39.1601 19.1397 42.1274L2.07306 116.846C1.395 119.814 2.10647 122.93 4.00585 125.31L51.8307 185.238C53.7282 187.615 56.6048 189 59.6468 189H136.353C139.395 189 142.272 187.615 144.169 185.238L191.994 125.31C193.894 122.93 194.605 119.814 193.927 116.846L176.86 42.1274ZM124.136 143.681C122.239 146.053 119.365 147.434 116.328 147.434H79.6781C76.6369 147.434 73.761 146.05 71.8635 143.673L49.0235 115.068C47.1233 112.688 46.4112 109.572 47.0889 106.603L55.2348 70.9179C55.9125 67.949 57.9061 65.4507 60.6506 64.1311L93.6944 48.2427C96.4332 46.9258 99.6223 46.9258 102.361 48.2427L135.405 64.1311C138.149 65.4507 140.143 67.949 140.821 70.9179L148.965 106.597C149.644 109.569 148.929 112.689 147.025 115.07L124.136 143.681Z" stroke="#FF2473" stroke-width="2" stroke-miterlimit="10"/>
</svg>
