<svg width="72" height="62" viewBox="0 0 72 62" fill="none" xmlns="http://www.w3.org/2000/svg">
<path id="Vector" d="M54.9443 3.48034C54.0482 1.94442 52.4038 1 50.6256 1H21.3724C19.594 1 17.9496 1.94453 17.0535 3.48059L2.4697 28.4806C1.56152 30.0374 1.56152 31.9626 2.46971 33.5194L17.0535 58.5194C17.9496 60.0555 19.594 61 21.3724 61H50.6256C52.4038 61 54.0482 60.0556 54.9443 58.5197L69.53 33.5197C70.4383 31.9627 70.4383 30.0373 69.53 28.4803L54.9443 3.48034ZM47.0266 44.949C46.1305 46.485 44.4861 47.4294 42.7078 47.4294H29.281C27.5028 47.4294 25.8584 46.485 24.9623 44.949L18.2942 33.5196C17.3859 31.9627 17.3859 30.0373 18.2942 28.4804L24.9623 17.051C25.8584 15.515 27.5028 14.5706 29.281 14.5706H42.7078C44.4861 14.5706 46.1305 15.515 47.0266 17.051L53.6946 28.4804C54.6029 30.0373 54.6029 31.9627 53.6946 33.5196L47.0266 44.949Z" fill="#361281" stroke="#D5FF2F" stroke-width="2" stroke-miterlimit="10"/>
</svg>
