<svg width="372" height="324" viewBox="0 0 372 324" fill="none" xmlns="http://www.w3.org/2000/svg">
<path d="M281.872 5.99752C280.086 2.9049 276.785 1 273.214 1H98.7749C95.2031 1 91.9024 2.90512 90.1158 5.998L2.88945 156.998C1.10158 160.093 1.10158 163.907 2.88944 167.002L90.1158 318.002C91.9024 321.095 95.2031 323 98.7749 323H273.214C276.785 323 280.086 321.095 281.872 318.002L369.11 167.002C370.898 163.907 370.898 160.093 369.11 156.998L281.872 5.99752ZM239.795 245.174C238.009 248.266 234.708 250.171 231.137 250.171H140.804C137.233 250.171 133.932 248.266 132.145 245.174L86.9847 167.002C85.1966 163.907 85.1966 160.093 86.9847 156.998L132.145 78.8265C133.932 75.7338 137.233 73.8289 140.804 73.8289H231.136C234.708 73.8289 238.009 75.7338 239.795 78.8265L284.956 156.998C286.744 160.093 286.744 163.907 284.956 167.002L239.795 245.174Z" stroke="#D5FF2F" stroke-width="2" stroke-miterlimit="10"/>
</svg>
