<svg width="371" height="371" viewBox="0 0 371 371" fill="none" xmlns="http://www.w3.org/2000/svg">
<path d="M301.275 40.8473C299.952 38.5564 297.773 36.8848 295.218 36.2L165.12 1.34C162.564 0.655047 159.84 1.01373 157.548 2.33713L40.84 69.7312C38.5487 71.0543 36.8767 73.2334 36.1919 75.7892L1.34 205.86C0.655183 208.416 1.01359 211.139 2.33638 213.431L69.7123 330.151C71.0354 332.443 73.2148 334.115 75.771 334.8L205.867 369.66C208.423 370.345 211.147 369.986 213.439 368.663L330.147 301.269C332.439 299.946 334.111 297.767 334.795 295.211L369.66 165.092C370.345 162.536 369.986 159.812 368.662 157.52L301.275 40.8473ZM262.984 240.118C262.299 242.673 260.627 244.85 258.337 246.173L201.655 278.904C199.364 280.227 196.64 280.586 194.084 279.901L130.891 262.968C128.335 262.283 126.155 260.611 124.832 258.319L92.1112 201.634C90.7884 199.342 90.43 196.619 91.1148 194.063L108.054 130.845C108.739 128.289 110.411 126.11 112.702 124.787L169.382 92.0571C171.673 90.7337 174.397 90.375 176.953 91.0599L240.17 107.999C242.727 108.684 244.906 110.357 246.229 112.649L278.949 169.332C280.273 171.625 280.631 174.349 279.945 176.906L262.984 240.118Z" stroke="#54F2F2" stroke-width="2" stroke-miterlimit="10"/>
</svg>
